<?xml version="1.0" encoding="UTF-8" standalone="no"?>
<!DOCTYPE svg PUBLIC "-//W3C//DTD SVG 20010904//EN"
"http://www.w3.org/TR/2001/REC-SVG-20010904/DTD/svg10.dtd">
<!-- Created with Sodipodi ("http://www.sodipodi.com/") -->
<svg
   id="svg592"
   sodipodi:version="0.33"
   width="600pt"
   height="600pt"
   sodipodi:docbase="/home/tobias/Desktop"
   sodipodi:docname="/home/tobias/Desktop/Oxidising.svg"
   sodipodi:author="Aqua78"
   xmlns="http://www.w3.org/2000/svg"
   xmlns:sodipodi="http://sodipodi.sourceforge.net/DTD/sodipodi-0.dtd"
   xmlns:xlink="http://www.w3.org/1999/xlink">
  <defs
     id="defs594" />
  <sodipodi:namedview
     id="base" />
  <rect
     style="font-size:12.000;fill:#ff6700;fill-rule:evenodd;stroke:#000000;stroke-width:6.250000;"
     id="rect633"
     width="600.000000"
     height="600.000000"
     x="84.682228"
     y="154.565033"
     transform="translate(-4.650838,-74.41330)" />
  <g
     id="g650"
     transform="matrix(4.005551,0,0,4.005551,78.44294,71.31516)">
    <path
       style="fill:#000000;fill-rule:evenodd;stroke:#000000;stroke-opacity:1;stroke-width:1pt;stroke-linejoin:miter;stroke-linecap:round;fill-opacity:1;"
       d="M 76.437500 16.500000 C 76.437498 16.500000 69.300080 21.920720 70.093750 31.312500 C 70.887434 40.704289 72.491460 38.600530 70.375000 44.156250 C 65.480680 38.600612 60.437500 38.187500 60.437500 38.187500 C 60.437501 38.187502 63.209340 42.287100 62.812500 49.562500 C 62.415661 56.837893 59.781250 61.875000 59.781250 61.875000 L 56.875000 62.281250 C 56.875000 62.281251 54.900730 56.968750 51.593750 56.968750 C 53.710221 69.799872 45.882280 80.257300 45.750000 80.125000 C 45.617722 79.992704 42.053970 79.458070 39.937500 76.812500 C 39.276110 78.928895 39.544050 81.570190 42.718750 85.406250 C 41.660521 88.316327 39.397600 103.155260 46.937500 114.531250 C 47.458273 115.262983 48.149456 115.846240 48.843750 116.437500 C 48.312833 114.297503 47.937500 112.084690 47.937500 109.781250 C 47.937500 94.498330 60.342067 82.093750 75.625000 82.093750 C 90.907931 82.093747 103.312500 94.498327 103.312500 109.781250 C 103.312499 111.488763 103.108870 113.158920 102.812500 114.781250 C 103.286579 114.619303 105.021670 114.153740 105.031250 114.125000 C 105.163549 113.860513 108.851050 109.633990 108.718750 106.062500 C 108.586549 102.490908 108.842900 80.649800 110.562500 79.062500 C 112.282199 77.475198 107.651950 80.240550 106.593750 79.843750 C 105.535449 79.446942 108.057850 53.399870 103.031250 51.812500 C 103.163549 58.294202 99.875000 63.718750 99.875000 63.718750 C 99.874999 63.718752 98.289418 51.296360 96.437500 45.343750 C 94.585597 39.391141 89.812500 36.750000 89.812500 36.750000 C 89.812502 36.750002 90.875880 42.685750 89.156250 46.125000 C 87.436622 49.564261 87.964480 40.827920 86.906250 38.843750 C 85.848008 36.859572 79.363450 28.814260 78.437500 25.375000 C 77.511554 21.935751 76.437500 16.500000 76.437500 16.500000 z M 77.781250 57.218750 C 77.781248 57.218749 78.801040 64.167358 79.406250 65.781250 C 80.011456 67.395138 82.831077 73.255204 82.125000 76.281250 C 81.418926 79.307296 76.579864 81.611464 74.562500 77.375000 C 72.545135 73.138536 72.233499 61.455214 77.781250 57.218750 z M 65.375000 67.406250 C 66.484551 67.607982 70.191841 70.115268 69.687500 77.781250 C 68.577950 82.723792 64.052605 81.613027 63.750000 76.468750 C 63.447399 74.249651 65.072396 71.743582 65.375000 67.406250 z M 90.187500 75.156250 C 92.608338 82.418760 90.000000 81.812499 90.000000 81.812500 C 86.267878 81.812500 87.968399 77.577088 90.187500 75.156250 z M 55.468750 78.687500 C 56.467294 79.472070 57.451208 83.361399 55.687500 83.218750 C 53.424520 83.076099 54.428425 79.103210 55.468750 78.687500 z M 98.250000 79.593750 C 100.458966 81.972808 99.718225 86.941545 98.156250 86.656250 C 95.484734 86.875293 96.569854 80.838781 98.250000 79.593750 z M 47.406250 91.687500 C 48.048170 92.543398 50.808083 97.621930 47.718750 97.437500 C 45.342663 97.395720 46.906978 92.430289 47.406250 91.687500 z M 104.593750 91.937500 C 105.734939 92.008828 106.652650 95.831856 104.906250 95.718750 C 103.302496 95.748295 103.850970 92.281886 104.593750 91.937500 z "
       id="path649" />
    <circle cx="77.82140" cy="111.3967" r="27.31232" transform="matrix(1.013699,0.000000,0.000000,1.013699,-2.446365,-2.904882)"
       style="fill-rule:evenodd;stroke:#000000;fill:none;fill-opacity:1;stroke-opacity:1;stroke-width:3.2061;stroke-linejoin:miter;stroke-linecap:butt;stroke-dasharray:none;" />
  </g>
</svg>
